<svg xmlns="http://www.w3.org/2000/svg" width="960px" height="520px">
  <rect x="0" y="0" width="100%" height="100%" fill="#ffbf00"/>
  <path
     d="m 278.1866,303.13601 q -17.74933,0 -27.648,-8.704 -9.89866,-8.87467 -9.89866,-26.624 v -34.64534 h -13.48267 v -24.064 h 13.48267 V 188.448 h 32.42666 v 20.65067 h 21.16267 v 24.064 H 273.0666 v 34.304 q 0,5.12 2.56,7.85067 2.73067,2.73067 7.168,2.73067 5.632,0 9.89867,-2.90134 l 8.02133,22.69867 q -4.26666,2.73067 -10.24,3.92533 -5.97333,1.36534 -12.288,1.36534 z m 34.98675,-1.536 v -92.50134 h 32.42667 v 92.50134 z m 16.21334,-102.74134 q -8.87467,0 -14.336,-4.94933 -5.46134,-4.94934 -5.46134,-12.288 0,-7.168 5.46134,-12.11734 5.46133,-5.12 14.336,-5.12 8.87467,0 14.336,4.77867 5.46133,4.608 5.46133,11.94667 0,7.68 -5.46133,12.8 -5.29067,4.94933 -14.336,4.94933 z m 84.47996,104.27734 q -15.53067,0 -27.47734,-6.144 -11.94666,-6.144 -18.77333,-16.896 -6.82667,-10.752 -6.82667,-24.91734 0,-13.824 6.82667,-24.576 6.82667,-10.92267 18.77333,-16.896 11.94667,-6.144 27.47734,-6.144 15.70133,0 27.136,6.656 11.43467,6.656 16.21333,18.77333 l -25.088,12.8 q -3.24267,-6.48533 -8.02133,-9.38666 -4.77867,-3.072 -10.41067,-3.072 -8.36267,0 -14.336,5.80266 -5.80267,5.632 -5.80267,16.04267 0,10.752 5.80267,16.55467 5.97333,5.632 14.336,5.632 5.632,0 10.41067,-2.90133 4.77866,-3.072 8.02133,-9.55734 l 25.088,12.8 q -4.77866,11.94667 -16.21333,18.77334 -11.43467,6.656 -27.136,6.656 z m 55.29596,-1.536 V 174.96534 h 32.42667 V 241.184 l 33.10933,-32.08533 h 38.40001 l -38.40001,39.59467 41.64267,52.90667 h -39.25333 l -25.77067,-32.42667 -9.728,9.728 v 22.69867 z m 115.54135,0 V 174.96534 h 32.42667 v 126.63467 z m 69.29061,34.64533 q -7.33866,0 -14.848,-2.21867 -7.33866,-2.21866 -11.94666,-6.144 l 11.264,-22.69866 q 2.90133,2.56 6.656,3.92533 3.92533,1.536 7.68,1.536 4.77866,0 7.68,-1.87733 2.90133,-1.87734 4.94933,-5.97334 l -39.59467,-93.696 h 33.28 l 22.69867,56.49067 22.86934,-56.49067 h 30.89066 l -39.936,96.256 q -4.77866,11.94667 -11.09333,18.60267 -6.144,6.82667 -13.824,9.55733 -7.50934,2.73067 -16.72534,2.73067 z"
     style="font-weight:800;font-size:170.667px;font-family:Montserrat;text-anchor:middle;fill:#ffffff"
     aria-label="tickly" />
</svg>
