<svg width="220" height="100" xmlns="http://www.w3.org/2000/svg">
 <!-- Created with Method Draw - http://github.com/duopixel/Method-Draw/ -->

 <g>
  <title>Layer 1</title>
  <g id="svg_10">
   <g transform="matrix(4.7013291045004735,0,0,4.7013291045004735,0,0) " id="svg_8">
    <title transform="translate(0,0.06228572130203247) translate(10.464000701904297,-5.636857509613037) translate(7.81685733795166,-4.235428810119629) translate(-31.22942352294922,0) translate(0,-41.86471176147461) ">background</title>
    <rect x="-13.948565" y="-52.674712" width="107" height="107" id="svg_6" fill="none"/>
   </g>
   <g transform="matrix(1.3660017274452345,0,0,1.3660017274452345,-7.801148963949594,152.75501858069183) " id="svg_9">
    <title transform="translate(0,-0.10718349367380142) translate(0,-0.10718349367380142) translate(0,0.21436698734760284) translate(0,-0.10718349367380142) translate(-0.23275132477283478,-1.4210854715202004e-14) translate(0,-1.4210854715202004e-14) translate(-20.598491668701172,-1.6292592287063599) translate(0,-1.4210854715202004e-14) translate(6.549280166625977,-38.028076171875) translate(15.75724983215332,-29.989604949951172) translate(0,1.4210854715202004e-14) translate(-1.1494436264038086,7.662957191467285) translate(13.957529067993164,-21.34680938720703) translate(3.452385187149048,-22.95612144470215) translate(4.243613243103027,-7.577880382537842) translate(1.4711873531341553,-7.957785606384277) translate(0,2.7110390663146973) translate(-0.40485715866088867,-12.14571475982666) translate(10.464000701904297,-5.636857509613037) translate(7.81685733795166,-4.235428810119629) translate(-8.40857219696045,10.464000701904297) translate(0.06228572130203247,0) translate(-31.22942352294922,0) translate(0,-41.86471176147461) ">Layer 1</title>
    <path stroke="null" d="m78.80129,-58.978337c-3.895239,7.355576 -10.296461,13.247711 -18.165456,16.720812c-7.869073,3.473101 -16.744484,4.323642 -25.187159,2.413541c-8.442598,-1.910024 -15.957298,-6.468677 -21.325493,-12.936581c-5.368218,-6.467981 -8.275104,-14.46593 -8.249298,-22.696957c0.025799,-8.231026 2.982781,-16.212499 8.391403,-22.650001c5.408653,-6.43758 12.95182,-10.953748 21.406254,-12.816182c8.454511,-1.862434 17.32443,-0.96192 25.17161,2.555515c7.847103,3.517427 14.211194,9.445479 18.060328,16.822947l-34.511473,16.196486l34.409284,16.39042z" fill="#FFBF00" id="svg_5"/>
   </g>
   <!-- Created with Method Draw - http://github.com/duopixel/Method-Draw/ -->
   <g stroke="null" id="svg_75">
    <g stroke="null" transform="matrix(0.9985895955701314,0,0,0.9985895955701314,-59.77334733249137,202.62366931932957) " id="svg_73">
     <title stroke="null" transform="translate(-0.14661963284015656,0) translate(9.970134735107422,0) translate(3.9587299823760986,0) translate(0.8296937346458435,0) translate(-4.010186672210693,-0.2765645980834961) translate(8.711784362792969,-0.13828229904174805) translate(0.13828229904174805,0.13828229904174805) translate(0,0.2765645980834961) translate(88.91551208496094,-0.2765645980834961) translate(-0.417544960975647,0.69590824842453) translate(0.4186340570449829,-3.488616943359375) translate(-99.99457550048828,0.14661963284015656) translate(0.1452266275882721,-4.647252082824707) translate(23.487743377685547,-25.852279663085938) translate(-2.8060154914855957,11.624921798706055) translate(76.96499633789062,-53.715152740478516) translate(28.487035751342773,-31.99913787841797) translate(20.376934051513672,-22.565567016601562) translate(17.668556213378906,-18.10713768005371) translate(20.071426391601562,-18.837087631225586) translate(12.543150901794434,-15.459086418151855) translate(15.841197967529297,-19.35697364807129) translate(14.549633979797363,-14.298778533935547) translate(3.114285945892334,4.453428745269775) translate(-1.899714469909668,11.180286407470703) translate(-8.875715255737305,8.315142631530762) translate(-10.028000831604004,9.592000007629395) translate(-10.339428901672363,8.688857078552246) translate(-10.868857383728027,7.069429397583008) translate(-31.22942352294922,0) translate(0,-41.86471176147461) ">background</title>
     <rect stroke="null" x="164.576876" y="-209.701753" width="107" height="107" id="svg_71" fill="none"/>
    </g>
    <g stroke="null" transform="matrix(1.0587966768193573,0,0,1.0587966768193573,-63.1586475547229,215.09306183881998) " id="svg_74">
     <title stroke="null" transform="translate(-0.13828229904174805,0) translate(9.403196334838867,0) translate(3.733621835708618,0) translate(0.8296937346458435,0) translate(-4.010186672210693,-0.2765645980834961) translate(8.711784362792969,-0.13828229904174805) translate(0.13828229904174805,0.13828229904174805) translate(0,0.2765645980834961) translate(88.91551208496094,-0.2765645980834961) translate(-0.417544960975647,0.69590824842453) translate(0.4186340570449829,-3.488616943359375) translate(-99.99457550048828,0.14661963284015656) translate(0.1452266275882721,-4.647252082824707) translate(23.487743377685547,-25.852279663085938) translate(-2.8060154914855957,11.624921798706055) translate(76.96499633789062,-53.715152740478516) translate(28.487035751342773,-31.99913787841797) translate(20.376934051513672,-22.565567016601562) translate(17.668556213378906,-18.10713768005371) translate(20.071426391601562,-18.837087631225586) translate(12.543150901794434,-15.459086418151855) translate(15.841197967529297,-19.35697364807129) translate(14.549633979797363,-14.298778533935547) translate(3.114285945892334,4.453428745269775) translate(-1.899714469909668,11.180286407470703) translate(-8.875715255737305,8.315142631530762) translate(-10.028000831604004,9.592000007629395) translate(-10.339428901672363,8.688857078552246) translate(-10.868857383728027,7.069429397583008) translate(-31.22942352294922,0) translate(0,-41.86471176147461) ">Layer 1</title>
     <path stroke="null" d="m261.872257,-134.756593c-5.0354,9.5086 -13.3103,17.1254 -23.4826,21.6151c-10.1724,4.4897 -21.6457,5.5892 -32.5596,3.12c-10.9138,-2.4691 -20.6281,-8.3621 -27.5676,-16.7232c-6.93953,-8.3612 -10.69728,-18.7002 -10.66392,-29.3405c0.03335,-10.6403 3.85586,-20.958 10.84762,-29.2798c6.9918,-8.3219 16.7429,-14.15998 27.672,-16.56756c10.9292,-2.40758 22.3954,-1.24348 32.5395,3.30353c10.144,4.547 18.3709,12.21023 23.3467,21.74713l-44.6132,20.9373l44.4811,21.188z" fill="#FFBF00" id="svg_70"/>
     <ellipse stroke="null" fill="#ffbf00" stroke-width="null" cx="217.444707" cy="-155.940613" id="svg_69" rx="49.72047" ry="47.1575"/>
    </g>
   </g>
  </g>
 </g>
</svg>