<svg id="visual" viewBox="0 0 900 450" width="900" height="450" xmlns="http://www.w3.org/2000/svg" xmlns:xlink="http://www.w3.org/1999/xlink" version="1.1"><rect x="0" y="0" width="900" height="450" fill="#000000"></rect><path d="M0 354L30 341.7C60 329.3 120 304.7 180 288.7C240 272.7 300 265.3 360 276.3C420 287.3 480 316.7 540 328.3C600 340 660 334 720 316.2C780 298.3 840 268.7 870 253.8L900 239L900 451L870 451C840 451 780 451 720 451C660 451 600 451 540 451C480 451 420 451 360 451C300 451 240 451 180 451C120 451 60 451 30 451L0 451Z" fill="#ffbf00"></path><path d="M0 377L30 372.2C60 367.3 120 357.7 180 356.8C240 356 300 364 360 365.5C420 367 480 362 540 365.8C600 369.7 660 382.3 720 376.5C780 370.7 840 346.3 870 334.2L900 322L900 451L870 451C840 451 780 451 720 451C660 451 600 451 540 451C480 451 420 451 360 451C300 451 240 451 180 451C120 451 60 451 30 451L0 451Z" fill="#ffc547"></path><path d="M0 411L30 411C60 411 120 411 180 403.2C240 395.3 300 379.7 360 372.7C420 365.7 480 367.3 540 375.5C600 383.7 660 398.3 720 401.8C780 405.3 840 397.7 870 393.8L900 390L900 451L870 451C840 451 780 451 720 451C660 451 600 451 540 451C480 451 420 451 360 451C300 451 240 451 180 451C120 451 60 451 30 451L0 451Z" fill="#ffca5f"></path><path d="M0 417L30 415.5C60 414 120 411 180 406.7C240 402.3 300 396.7 360 392.8C420 389 480 387 540 391.3C600 395.7 660 406.3 720 408.5C780 410.7 840 404.3 870 401.2L900 398L900 451L870 451C840 451 780 451 720 451C660 451 600 451 540 451C480 451 420 451 360 451C300 451 240 451 180 451C120 451 60 451 30 451L0 451Z" fill="#ffc547"></path><path d="M0 416L30 420.3C60 424.7 120 433.3 180 430.7C240 428 300 414 360 403.5C420 393 480 386 540 389C600 392 660 405 720 405.2C780 405.3 840 392.7 870 386.3L900 380L900 451L870 451C840 451 780 451 720 451C660 451 600 451 540 451C480 451 420 451 360 451C300 451 240 451 180 451C120 451 60 451 30 451L0 451Z" fill="#ffbf00"></path></svg>